<svg xmlns="http://www.w3.org/2000/svg" viewBox="0 0 100 100">
  <path d="M16 54 C16 42 24 32 36 30 C47 28 57 32 67 37 C74 40 80 39 84 34
           C87 30 89 27 89 33 C89 38 86 44 82 48 C78 52 75 54 73 59
           C72 63 72 67 69 68 C66 69 65 64 62 62 C54 57 44 59 34 66
           C26 72 16 67 14 60 C13 57 16 54 16 54Z" fill="#3B82F6"/>
  <path d="M88 33 L97 23 L93 35 L97 44 L87 39Z" fill="#1D4ED8"/>
  <path d="M18 58 C22 66 30 74 40 71 C46 69 48 64 44 60
           C38 55 26 56 18 58Z" fill="#93C5FD" opacity="0.38"/>
  <path d="M40 63 C34 74 26 80 20 78 C22 72 30 64 40 63Z" fill="#2563EB"/>
  <circle cx="30" cy="44" r="2" fill="#060d1a" opacity="0.7"/>
  <path d="M36 34 C40 31 48 30 54 33" stroke="#93C5FD" stroke-width="1.3"
        fill="none" stroke-linecap="round" opacity="0.35"/>
</svg>
